<?xml version="1.0" encoding="UTF-8"?>
<svg version="1.1" xmlns="http://www.w3.org/2000/svg" width="348" height="287">
<path d="M0 0 C10.12731859 5.2394808 17.81614715 11.63203521 21.5 22.68359375 C21.59755436 25.61022459 21.63911256 28.50758873 21.625 31.43359375 C21.62886719 32.21992187 21.63273437 33.00625 21.63671875 33.81640625 C21.62886771 38.54273422 21.28516377 43.02246278 20.5 47.68359375 C21.49 48.01359375 22.48 48.34359375 23.5 48.68359375 C23.94937779 55.27446804 22.56969278 61.4270454 20.5 67.68359375 C19.84 68.34359375 19.18 69.00359375 18.5 69.68359375 C17.51 69.68359375 16.52 69.68359375 15.5 69.68359375 C15.43941406 70.29847656 15.37882813 70.91335937 15.31640625 71.546875 C15.23261719 72.35511719 15.14882812 73.16335937 15.0625 73.99609375 C14.94068359 75.19685547 14.94068359 75.19685547 14.81640625 76.421875 C14.5 78.68359375 14.5 78.68359375 13.5 81.68359375 C15.48 81.02359375 17.46 80.36359375 19.5 79.68359375 C19.39945312 81.24207031 19.39945312 81.24207031 19.296875 82.83203125 C19.48937755 84.82776606 19.48937755 84.82776606 20.5 86.68359375 C23.96612915 89.17876032 27.81407791 90.69058333 31.75 92.30859375 C32.85230957 92.78514404 33.95461914 93.26169434 35.09033203 93.75268555 C38.21524794 95.093286 41.35315648 96.39547156 44.5 97.68359375 C45.19899414 97.97540527 45.89798828 98.2672168 46.61816406 98.56787109 C51.7369666 100.69758133 56.94270812 102.50751628 62.20703125 104.23828125 C63.03025879 104.50922607 63.85348633 104.7801709 64.70166016 105.05932617 C66.32783116 105.59036316 67.95635414 106.1142644 69.58740234 106.63012695 C75.28377047 108.46736422 75.28377047 108.46736422 77.5 110.68359375 C78.42535378 114.17468421 78.67082287 117.58116103 78.82421875 121.1796875 C79.56580124 135.68636222 81.12595457 149.79398712 83.5 164.12109375 C86.69693372 183.5825382 88.64681036 202.51331 88.8125 222.24609375 C88.82721344 223.34469223 88.82721344 223.34469223 88.84222412 224.46548462 C88.86589237 226.56065571 88.8679932 228.65472181 88.86328125 230.75 C88.86775269 232.57446655 88.86775269 232.57446655 88.87231445 234.43579102 C88.45711741 238.05767052 87.7581405 239.8395873 85.5 242.68359375 C81.62760357 245.73374897 78.52832105 246.08825628 73.66796875 246.1953125 C72.37568359 246.23076172 71.08339844 246.26621094 69.75195312 246.30273438 C68.39714066 246.32583056 67.04232282 246.3486131 65.6875 246.37109375 C64.31311883 246.40429136 62.93876829 246.43878328 61.56445312 246.47460938 C58.20992393 246.55700132 54.85497509 246.62197609 51.5 246.68359375 C51.83 251.30359375 52.16 255.92359375 52.5 260.68359375 C13.89 260.68359375 -24.72 260.68359375 -64.5 260.68359375 C-64.5 250.67349274 -64.5 250.67349274 -63.44921875 245.47265625 C-60.76968957 230.63090271 -60.27033289 217.60161727 -62.5 202.68359375 C-62.60960052 201.92443665 -62.71920105 201.16527954 -62.8321228 200.38311768 C-63.94560155 192.90326201 -65.02922384 186.98499636 -69.5 180.68359375 C-69.5 180.02359375 -69.5 179.36359375 -69.5 178.68359375 C-75.11358612 180.61249118 -79.84849448 182.85112169 -84.75 186.18359375 C-85.39187256 186.61430176 -86.03374512 187.04500977 -86.69506836 187.48876953 C-92.2021882 191.28194229 -97.03035628 195.58121703 -101.81640625 200.23828125 C-105.45801028 203.55654053 -108.73757446 206.33110864 -113.625 207.30859375 C-121.05682362 206.10991252 -128.5931132 202.69856104 -133.30273438 196.64306641 C-135.9508934 192.30902801 -137.4794549 187.44417482 -139.1875 182.68359375 C-142.35012298 174.14790596 -145.69090353 165.79727236 -149.5625 157.55859375 C-157.36846678 140.80988377 -163.67746065 123.51971919 -168.5 105.68359375 C-165.64415227 103.77969526 -163.5688238 102.98897198 -160.3125 102.05859375 C-159.41144531 101.79820312 -158.51039063 101.5378125 -157.58203125 101.26953125 C-156.89496094 101.07617188 -156.20789063 100.8828125 -155.5 100.68359375 C-159.78663413 96.42217511 -163.93826949 93.30207413 -169.4375 90.74609375 C-173.51394535 88.83224581 -176.53823353 86.95894977 -179.75 83.80859375 C-185.65919775 78.12962449 -193.13987159 75.07918673 -200.5 71.68359375 C-200.5 70.69359375 -200.5 69.70359375 -200.5 68.68359375 C-201.2113208 68.6993042 -201.9226416 68.71501465 -202.65551758 68.73120117 C-205.87443104 68.7935129 -209.09321768 68.83257242 -212.3125 68.87109375 C-213.43205078 68.89623047 -214.55160156 68.92136719 -215.70507812 68.94726562 C-216.77822266 68.95693359 -217.85136719 68.96660156 -218.95703125 68.9765625 C-219.94678955 68.99227295 -220.93654785 69.0079834 -221.95629883 69.02416992 C-224.91780133 68.62765433 -225.61856711 67.90749779 -227.5 65.68359375 C-229.47678603 65.18549167 -229.47678603 65.18549167 -231.5625 65.12109375 C-235.5 64.68359375 -235.5 64.68359375 -237.5 62.68359375 C-237.5 61.36359375 -237.5 60.04359375 -237.5 58.68359375 C-220.68651127 57.88146766 -203.92099461 57.54502276 -187.08984375 57.5859375 C-184.77144909 57.58780994 -182.45305402 57.58922992 -180.13465881 57.59022522 C-174.12621913 57.59398555 -168.11780486 57.60375775 -162.109375 57.6149292 C-155.9407587 57.62528542 -149.77213817 57.62975281 -143.60351562 57.63476562 C-131.56899945 57.64538807 -119.53450186 57.66238313 -107.5 57.68359375 C-106.5 60.68359375 -106.5 60.68359375 -107.375 62.74609375 C-110.19388704 65.31625546 -112.73904796 65.59562446 -116.44140625 66.19140625 C-118.70903696 66.54376652 -118.70903696 66.54376652 -120.5 68.68359375 C-123.48095703 69.00244141 -123.48095703 69.00244141 -127.2578125 69.09765625 C-127.92086395 69.1170224 -128.58391541 69.13638855 -129.26705933 69.15634155 C-131.38624177 69.21615329 -133.5054785 69.26252763 -135.625 69.30859375 C-137.06122169 69.3467722 -138.49742045 69.38582386 -139.93359375 69.42578125 C-143.45551936 69.521855 -146.97761608 69.60588017 -150.5 69.68359375 C-150.11038086 70.11567139 -149.72076172 70.54774902 -149.31933594 70.99291992 C-145.9635975 74.79578001 -143.21184847 78.53535504 -140.75 82.99609375 C-140.41621338 83.5981665 -140.08242676 84.20023926 -139.73852539 84.82055664 C-139.02163532 86.11418666 -138.30758515 87.409394 -137.59619141 88.70605469 C-136.5173241 90.65234091 -135.4098949 92.5792512 -134.29296875 94.50390625 C-128.55030801 104.48977536 -123.44602199 114.75355285 -118.4375 125.12109375 C-118.09999725 125.81911102 -117.76249451 126.5171283 -117.4147644 127.23629761 C-111.70651736 139.06404166 -111.70651736 139.06404166 -110.5 142.68359375 C-108.27131471 142.9118189 -108.27131471 142.9118189 -106.4375 140.74609375 C-105.45644189 139.72707803 -104.47764183 138.70588749 -103.5 137.68359375 C-101.98367942 136.1374883 -100.46250202 134.59613691 -98.9375 133.05859375 C-98.19371094 132.30320313 -97.44992188 131.5478125 -96.68359375 130.76953125 C-91.35955056 125.68359375 -91.35955056 125.68359375 -88.5 125.68359375 C-88.41363281 125.07773438 -88.32726562 124.471875 -88.23828125 123.84765625 C-87.77555808 121.08829787 -87.16901257 118.40030225 -86.5 115.68359375 C-86.29761719 114.78769531 -86.09523437 113.89179688 -85.88671875 112.96875 C-84.82038241 109.84490126 -83.8352624 108.04020224 -81.5 105.68359375 C-78.17169039 104.43595312 -74.96840569 103.62194155 -71.50512695 102.87036133 C-63.66267204 101.04658877 -56.83414521 97.71535283 -49.6875 94.05859375 C-48.56061768 93.48326904 -47.43373535 92.90794434 -46.27270508 92.31518555 C-37.46367867 88.5113366 -37.46367867 88.5113366 -31.1875 81.99609375 C-30.8471875 80.85140625 -30.8471875 80.85140625 -30.5 79.68359375 C-29.84 79.68359375 -29.18 79.68359375 -28.5 79.68359375 C-28.93386981 76.5946997 -29.45130868 73.62738208 -30.5 70.68359375 C-31.325 70.22984375 -32.15 69.77609375 -33 69.30859375 C-35.5 67.68359375 -35.5 67.68359375 -36.234375 65.28125 C-36.74109769 62.42133785 -37.13320273 59.56439481 -37.5 56.68359375 C-37.9021875 54.95109375 -37.9021875 54.95109375 -38.3125 53.18359375 C-38.374375 52.35859375 -38.43625 51.53359375 -38.5 50.68359375 C-37.98308594 50.25175781 -37.46617187 49.81992188 -36.93359375 49.375 C-36.46050781 48.81683594 -35.98742187 48.25867188 -35.5 47.68359375 C-35.76756862 45.0111011 -35.76756862 45.0111011 -36.75 42.12109375 C-39.20608541 33.31306331 -40.90977951 23.71300854 -38.5 14.68359375 C-36.67458925 12.217688 -35.20616013 11.28519873 -32.5 9.68359375 C-31.84 9.68359375 -31.18 9.68359375 -30.5 9.68359375 C-30.26152344 9.08933594 -30.02304688 8.49507812 -29.77734375 7.8828125 C-28.22898909 5.21699087 -26.64884853 4.14812918 -24.0625 2.49609375 C-23.28003906 1.98691406 -22.49757812 1.47773438 -21.69140625 0.953125 C-15.13519604 -2.845036 -6.94217284 -2.61106278 0 0 Z M-167.5 68.68359375 C-165.69038423 70.31191137 -165.69038423 70.31191137 -163.5 71.68359375 C-162.51 71.35359375 -161.52 71.02359375 -160.5 70.68359375 C-160.83 70.02359375 -161.16 69.36359375 -161.5 68.68359375 C-163.48 68.68359375 -165.46 68.68359375 -167.5 68.68359375 Z M-60.5 129.68359375 C-59.5 131.68359375 -59.5 131.68359375 -59.5 131.68359375 Z M51.5 189.68359375 C50.84 196.61359375 50.18 203.54359375 49.5 210.68359375 C50.82 210.68359375 52.14 210.68359375 53.5 210.68359375 C53.17 203.75359375 52.84 196.82359375 52.5 189.68359375 C52.17 189.68359375 51.84 189.68359375 51.5 189.68359375 Z " fill="#fff" transform="translate(238.5,26.31640625)"/>
<path d="M0 0 C10.12731859 5.2394808 17.81614715 11.63203521 21.5 22.68359375 C21.59755436 25.61022459 21.63911256 28.50758873 21.625 31.43359375 C21.62886719 32.21992187 21.63273437 33.00625 21.63671875 33.81640625 C21.62886771 38.54273422 21.28516377 43.02246278 20.5 47.68359375 C21.985 48.17859375 21.985 48.17859375 23.5 48.68359375 C23.94937779 55.27446804 22.56969278 61.4270454 20.5 67.68359375 C19.84 68.34359375 19.18 69.00359375 18.5 69.68359375 C17.51 69.68359375 16.52 69.68359375 15.5 69.68359375 C15.43941406 70.29847656 15.37882812 70.91335937 15.31640625 71.546875 C15.19072266 72.75923828 15.19072266 72.75923828 15.0625 73.99609375 C14.94068359 75.19685547 14.94068359 75.19685547 14.81640625 76.421875 C14.5 78.68359375 14.5 78.68359375 13.5 81.68359375 C15.48 81.02359375 17.46 80.36359375 19.5 79.68359375 C19.62375 80.79734375 19.7475 81.91109375 19.875 83.05859375 C20.1465813 86.71463052 20.1465813 86.71463052 22.5 88.68359375 C21.18 88.68359375 19.86 88.68359375 18.5 88.68359375 C18.4906543 89.34552734 18.48130859 90.00746094 18.47167969 90.68945312 C18.1263346 110.36735178 16.83031268 129.88139845 10.4296875 148.63671875 C9.34419328 152.1942208 8.68638333 155.77444753 8.0625 159.43359375 C6.92669969 166.05027225 5.23893127 172.37519812 3.27246094 178.79077148 C2.13443169 182.5058723 1.09856287 186.19055126 0.3125 189.99609375 C-0.5 193.68359375 -0.5 193.68359375 -1.54296875 195.6484375 C-2.62048902 197.93981734 -2.70871426 199.4221659 -2.625 201.93359375 C-2.58375 203.17109375 -2.5425 204.40859375 -2.5 205.68359375 C-1.51 205.35359375 -0.52 205.02359375 0.5 204.68359375 C0.5 205.34359375 0.5 206.00359375 0.5 206.68359375 C6.43259925 204.28927118 9.73279678 198.61501838 13.5 193.68359375 C14.11633301 192.87752686 14.11633301 192.87752686 14.74511719 192.05517578 C28.91522964 173.31889162 37.90253344 152.42995296 46.5 130.68359375 C47.16 131.01359375 47.82 131.34359375 48.5 131.68359375 C44.10049031 145.50854306 38.67126499 158.07699866 31.5 170.68359375 C31.12085449 171.36292969 30.74170898 172.04226562 30.35107422 172.7421875 C22.22822099 187.24343674 11.72931071 199.61259479 0.85131836 212.10693359 C-0.52932378 213.71780748 -1.86817069 215.35823888 -3.20703125 217.00390625 C-5.28667854 219.43429473 -6.55150145 220.59155725 -9.5 221.68359375 C-9.685625 220.50796875 -9.87125 219.33234375 -10.0625 218.12109375 C-11.16879866 213.76409559 -13.05531622 211.81983645 -16.3125 208.84765625 C-21.25384012 203.95925906 -25.29311976 198.20177086 -29.5 192.68359375 C-30.55574219 191.32041016 -30.55574219 191.32041016 -31.6328125 189.9296875 C-41.69133226 176.5929862 -49.10969411 162.05571393 -55.5 146.68359375 C-55.79422852 145.9889502 -56.08845703 145.29430664 -56.39160156 144.57861328 C-59.44453007 137.3627569 -61.96068606 130.38016347 -63.5 122.68359375 C-64.16 121.69359375 -64.82 120.70359375 -65.5 119.68359375 C-67.06448729 114.46863613 -67.7260748 110.10938895 -67.5 104.68359375 C-69.10727327 104.91277343 -70.71087416 105.16780177 -72.3125 105.43359375 C-73.65248047 105.64242187 -73.65248047 105.64242187 -75.01953125 105.85546875 C-78.00572658 106.85243475 -78.88380344 108.04183725 -80.5 110.68359375 C-80.5 110.02359375 -80.5 109.36359375 -80.5 108.68359375 C-81.16 108.68359375 -81.82 108.68359375 -82.5 108.68359375 C-82.17 107.69359375 -81.84 106.70359375 -81.5 105.68359375 C-79.0144485 104.94321671 -76.59130959 104.35893849 -74.0625 103.80859375 C-59.60465377 100.27615137 -44.89294308 92.90405201 -32.5 84.68359375 C-31.15310085 82.11259973 -31.15310085 82.11259973 -30.5 79.68359375 C-29.84 79.68359375 -29.18 79.68359375 -28.5 79.68359375 C-28.93386981 76.5946997 -29.45130868 73.62738208 -30.5 70.68359375 C-31.325 70.22984375 -32.15 69.77609375 -33 69.30859375 C-35.5 67.68359375 -35.5 67.68359375 -36.234375 65.28125 C-36.74109769 62.42133785 -37.13320273 59.56439481 -37.5 56.68359375 C-37.768125 55.52859375 -38.03625 54.37359375 -38.3125 53.18359375 C-38.4053125 51.94609375 -38.4053125 51.94609375 -38.5 50.68359375 C-37.98308594 50.25175781 -37.46617187 49.81992188 -36.93359375 49.375 C-36.46050781 48.81683594 -35.98742187 48.25867188 -35.5 47.68359375 C-35.76756862 45.0111011 -35.76756862 45.0111011 -36.75 42.12109375 C-39.20608541 33.31306331 -40.90977951 23.71300854 -38.5 14.68359375 C-36.67458925 12.217688 -35.20616013 11.28519873 -32.5 9.68359375 C-31.84 9.68359375 -31.18 9.68359375 -30.5 9.68359375 C-30.26152344 9.08933594 -30.02304688 8.49507812 -29.77734375 7.8828125 C-28.22898909 5.21699087 -26.64884853 4.14812918 -24.0625 2.49609375 C-23.28003906 1.98691406 -22.49757812 1.47773438 -21.69140625 0.953125 C-15.13519604 -2.845036 -6.94217284 -2.61106278 0 0 Z M-60.5 129.68359375 C-59.5 131.68359375 -59.5 131.68359375 -59.5 131.68359375 Z " fill="#fff" transform="translate(238.5,26.31640625)"/>
<path d="M0 0 C0.495 0.99 0.495 0.99 1 2 C1.70125 2.268125 2.4025 2.53625 3.125 2.8125 C6.89058923 4.36785208 9.73451493 6.56689348 13 9 C8.82412255 10.39195915 6.86525224 8.82323219 3 7 C3.495 8.010625 3.99 9.02125 4.5 10.0625 C6.62410942 15.01207572 6.64292557 19.8658576 5 25 C5.5053125 24.70480469 6.010625 24.40960938 6.53125 24.10546875 C9.75722081 22.66092802 13.05207723 21.99204206 16.5 21.3125 C17.49580078 21.09883789 17.49580078 21.09883789 18.51171875 20.88085938 C22.22205635 20.1365701 24.24288027 20.06072007 28 21 C28 24.63 28 28.26 28 32 C26.35 32.33 24.7 32.66 23 33 C23 34.32 23 35.64 23 37 C24.65 37 26.3 37 28 37 C28 43.93 28 50.86 28 58 C26.35 58 24.7 58 23 58 C23 59.32 23 60.64 23 62 C24.98 62 26.96 62 29 62 C29 70.58 29 79.16 29 88 C28.34 87.34 27.68 86.68 27 86 C25.68 86 24.36 86 23 86 C23 86.99 23 87.98 23 89 C24.65 89.33 26.3 89.66 28 90 C28 100.89 28 111.78 28 123 C28.99 122.67 29.98 122.34 31 122 C31 122.66 31 123.32 31 124 C36.93259925 121.60567743 40.23279678 115.93142463 44 111 C44.41088867 110.46262207 44.82177734 109.92524414 45.24511719 109.37158203 C59.41522964 90.63529787 68.40253344 69.74635921 77 48 C77.66 48.33 78.32 48.66 79 49 C74.60049031 62.82494931 69.17126499 75.39340491 62 88 C61.62085449 88.67933594 61.24170898 89.35867187 60.85107422 90.05859375 C52.72822099 104.55984299 42.22931071 116.92900104 31.35131836 129.42333984 C29.97067622 131.03421373 28.63182931 132.67464513 27.29296875 134.3203125 C25.21332146 136.75070098 23.94849855 137.9079635 21 139 C20.814375 137.824375 20.62875 136.64875 20.4375 135.4375 C19.33120134 131.08050184 17.44468378 129.1362427 14.1875 126.1640625 C9.24615988 121.27566531 5.20688024 115.51817711 1 110 C0.29617187 109.09121094 -0.40765625 108.18242187 -1.1328125 107.24609375 C-11.19133226 93.90939245 -18.60969411 79.37212018 -25 64 C-25.44134277 62.95803467 -25.44134277 62.95803467 -25.89160156 61.89501953 C-28.94453007 54.67916315 -31.46068606 47.69656972 -33 40 C-33.66 39.01 -34.32 38.02 -35 37 C-36.56448729 31.78504238 -37.2260748 27.4257952 -37 22 C-38.60727327 22.22917968 -40.21087416 22.48420802 -41.8125 22.75 C-42.70582031 22.88921875 -43.59914062 23.0284375 -44.51953125 23.171875 C-47.50572658 24.168841 -48.38380344 25.3582435 -50 28 C-50 27.34 -50 26.68 -50 26 C-50.66 26 -51.32 26 -52 26 C-51.505 24.515 -51.505 24.515 -51 23 C-48.51445029 22.25962349 -46.09134251 21.67519816 -43.5625 21.125 C-29.73871067 17.75407909 -15.82407258 10.88271505 -4 3 C-2.68 3 -1.36 3 0 3 C0 2.01 0 1.02 0 0 Z M-30 47 C-29 49 -29 49 -29 49 Z " fill="#fff" transform="translate(208,109)"/>
<path d="M0 0 C4.64278049 1.79828359 8.01492042 4.03072502 12 7 C7.82412255 8.39195915 5.86525224 6.82323219 2 5 C2.495 6.010625 2.99 7.02125 3.5 8.0625 C5.62410942 13.01207572 5.64292557 17.8658576 4 23 C5.32 22.34 6.64 21.68 8 21 C11.3 21 14.6 21 18 21 C18 48.06 18 75.12 18 103 C16.2056041 100.30840615 15.44153897 98.56988929 14.5625 95.53515625 C14.18097778 94.2188623 14.18097778 94.2188623 13.79174805 92.87597656 C13.53047119 91.9475293 13.26919434 91.01908203 13 90.0625 C12.7316333 89.11987305 12.4632666 88.17724609 12.18676758 87.20605469 C10.50018125 81.15409437 9.14300335 75.21770294 8.32421875 68.984375 C8.19895527 67.00434388 8.19895527 67.00434388 7 66 C6.45862179 63.32950413 6.03544423 60.64630024 5.59765625 57.95703125 C5.06368522 54.98771357 5.06368522 54.98771357 4.03515625 52.171875 C-1.40623749 35.49862323 -0.35096063 17.28526076 0 0 Z " fill="#F7F7F7" transform="translate(209,111)"/>
<path d="M0 0 C0.60016041 21.56884196 -0.02491257 42.33014954 -7.07421875 62.9609375 C-8.14495212 66.47583439 -8.77256246 70.00861066 -9.375 73.625 C-10.96164346 83.03800045 -13.96664547 91.96865317 -17 101 C-17.33 101 -17.66 101 -18 101 C-18 73.94 -18 46.88 -18 19 C-10.575 19.99 -10.575 19.99 -3 21 C-3.33 19.68 -3.66 18.36 -4 17 C-4.26868544 12.16366209 -3.76126593 8.51324394 -2 4 C-2.61488281 4.30035156 -3.22976562 4.60070312 -3.86328125 4.91015625 C-4.67152344 5.29042969 -5.47976562 5.67070313 -6.3125 6.0625 C-7.11300781 6.44535156 -7.91351563 6.82820313 -8.73828125 7.22265625 C-11 8 -11 8 -14 7 C-4.48854962 0 -4.48854962 0 0 0 Z " fill="#ECECEC" transform="translate(256,112)"/>
<path d="M0 0 C0 3.63 0 7.26 0 11 C-1.65 11.33 -3.3 11.66 -5 12 C-5 13.32 -5 14.64 -5 16 C-3.35 16 -1.7 16 0 16 C0 22.93 0 29.86 0 37 C-1.65 37 -3.3 37 -5 37 C-5 38.32 -5 39.64 -5 41 C-3.02 41 -1.04 41 1 41 C1 49.58 1 58.16 1 67 C0.34 66.34 -0.32 65.68 -1 65 C-2.32 65 -3.64 65 -5 65 C-5 65.99 -5 66.98 -5 68 C-3.35 68.33 -1.7 68.66 0 69 C0.05868218 72.9791034 0.0938239 76.95809353 0.125 80.9375 C0.14175781 82.05447266 0.15851563 83.17144531 0.17578125 84.32226562 C0.21418058 90.86935126 -0.12296023 96.70600999 -2 103 C-2.99 103.495 -2.99 103.495 -4 104 C-6.93718172 98.25199335 -7.41886884 93.70227345 -7.34057617 87.30102539 C-7.34101425 86.35390686 -7.34145233 85.40678833 -7.34190369 84.43096924 C-7.33982396 81.3196507 -7.31653125 78.20887994 -7.29296875 75.09765625 C-7.2873699 72.93289993 -7.28310117 70.76813979 -7.28010559 68.6033783 C-7.26867963 62.92008881 -7.23923165 57.23703121 -7.20599365 51.55383301 C-7.17524435 45.7488112 -7.16158986 39.94375174 -7.14648438 34.13867188 C-7.11435992 22.75901299 -7.06319066 11.37952582 -7 0 C-4 -1 -4 -1 0 0 Z " fill="#D7D7D7" transform="translate(236,130)"/>
<path d="M0 0 C2.46149161 0.00186993 4.92298359 0.00329111 7.38447571 0.00428772 C13.79742498 0.00806764 20.21035085 0.01785812 26.62329102 0.0289917 C33.19351892 0.03930427 39.76375068 0.04380623 46.33398438 0.04882812 C59.1770932 0.05948541 72.02018597 0.076308 84.86328125 0.09765625 C85.19328125 1.08765625 85.52328125 2.07765625 85.86328125 3.09765625 C85.20328125 3.75765625 84.54328125 4.41765625 83.86328125 5.09765625 C83.86328125 4.10765625 83.86328125 3.11765625 83.86328125 2.09765625 C21.49328125 2.59265625 21.49328125 2.59265625 -42.13671875 3.09765625 C-42.13671875 3.75765625 -42.13671875 4.41765625 -42.13671875 5.09765625 C-39.49671875 5.42765625 -36.85671875 5.75765625 -34.13671875 6.09765625 C-33.80671875 7.41765625 -33.47671875 8.73765625 -33.13671875 10.09765625 C-33.79671875 9.43765625 -34.45671875 8.77765625 -35.13671875 8.09765625 C-37.04416691 7.71316572 -37.04416691 7.71316572 -39.13671875 7.59765625 C-42.91449653 7.31987847 -42.91449653 7.31987847 -45.13671875 5.09765625 C-45.13671875 3.77765625 -45.13671875 2.45765625 -45.13671875 1.09765625 C-30.08262703 0.09641529 -15.0833616 -0.03410158 0 0 Z " fill="#8A8A8A" transform="translate(46.13671875,83.90234375)"/>
<path d="M0 0 C1.65 0 3.3 0 5 0 C4.01 0.33 3.02 0.66 2 1 C2.02545395 2.55855209 2.02545395 2.55855209 2.05142212 4.14859009 C2.21009422 13.94752897 2.35778797 23.74658023 2.49477577 33.54584694 C2.56555179 38.58356559 2.64017459 43.62116563 2.72363281 48.65869141 C2.80405431 53.5215091 2.87431332 58.3843778 2.93757248 63.24744797 C2.96346643 65.10140758 2.99300218 66.95532008 3.02626419 68.80916214 C3.07227956 71.40871325 3.10526297 74.00813153 3.13525391 76.60791016 C3.1517952 77.37180054 3.16833649 78.13569092 3.18537903 78.92272949 C3.22042942 83.34693029 2.6457776 86.89115319 1 91 C0.67 91 0.34 91 0 91 C0 83.74 0 76.48 0 69 C-1.65 69 -3.3 69 -5 69 C-5.33 67.68 -5.66 66.36 -6 65 C-4.34385343 64.61781233 -2.67542976 64.28604898 -1 64 C-0.67 64.33 -0.34 64.66 0 65 C0.33 57.08 0.66 49.16 1 41 C-1.97 41.495 -1.97 41.495 -5 42 C-5.33 40.35 -5.66 38.7 -6 37 C-3.525 36.505 -3.525 36.505 -1 36 C-1 29.73 -1 23.46 -1 17 C-2.65 16.67 -4.3 16.34 -6 16 C-5.67 14.35 -5.34 12.7 -5 11 C-3.35 11 -1.7 11 0 11 C0 7.37 0 3.74 0 0 Z " fill="#353535" transform="translate(236,130)"/>
<path d="M0 0 C1.98 0 3.96 0 6 0 C6 31.02 6 62.04 6 94 C5.67 94 5.34 94 5 94 C5 91.69 5 89.38 5 87 C4.34 87 3.68 87 3 87 C2.67 84.69 2.34 82.38 2 80 C2.33 80 2.66 80 3 80 C3.33 53.93 3.66 27.86 4 1 C2.68 0.67 1.36 0.34 0 0 Z " fill="#646464" transform="translate(223,131)"/>
<path d="M0 0 C1.98 0 3.96 0 6 0 C6.05868218 3.9791034 6.0938239 7.95809353 6.125 11.9375 C6.15013672 13.61295898 6.15013672 13.61295898 6.17578125 15.32226562 C6.21418058 21.86935126 5.87703977 27.70600999 4 34 C3.01 34.495 3.01 34.495 2 35 C-0.34894745 31.30995799 -0.23059746 28.1328897 -0.1953125 23.828125 C-0.1924826 23.1457074 -0.18965271 22.46328979 -0.18673706 21.76019287 C-0.17558098 19.58994693 -0.15048557 17.42012029 -0.125 15.25 C-0.11496426 13.77474556 -0.10583944 12.29948463 -0.09765625 10.82421875 C-0.07565687 7.21601058 -0.04115883 3.60804625 0 0 Z " fill="#F5F5F5" transform="translate(230,199)"/>
<path d="M0 0 C0 8.58 0 17.16 0 26 C-0.66 24.68 -1.32 23.36 -2 22 C-3.65 22 -5.3 22 -7 22 C-7 15.07 -7 8.14 -7 1 C-2 0 -2 0 0 0 Z " fill="#F2F2F2" transform="translate(237,171)"/>
<path d="M0 0 C0.66 0.33 1.32 0.66 2 1 C-2.39950969 14.82494931 -7.82873501 27.39340491 -15 40 C-15.37914551 40.67933594 -15.75829102 41.35867187 -16.14892578 42.05859375 C-23.5540015 55.27843728 -32.73075772 66.87743959 -43 78 C-43 73.91268963 -40.86126224 72.30839229 -38.25 69.4375 C-20.35907002 48.97566388 -9.82065574 25.02040904 0 0 Z " fill="#7F7F7F" transform="translate(285,157)"/>
<path d="M0 0 C3.27600244 3.00901545 5.39548725 6.09989188 7.625 9.9375 C14.12793419 20.81322972 22.22660125 30.42852551 30.45703125 40.02734375 C32.99779401 42.99742126 35.50359184 45.99265732 38 49 C40.64 46.36 43.28 43.72 46 41 C46 44.6987636 45.15647938 45.35773852 42.75 48.0625 C42.14671875 48.75472656 41.5434375 49.44695312 40.921875 50.16015625 C39.02981131 51.97146113 37.39394401 52.9778071 35 54 C34.814375 52.824375 34.62875 51.64875 34.4375 50.4375 C33.33120134 46.08050184 31.44468378 44.1362427 28.1875 41.1640625 C23.24763129 36.27712096 19.19864855 30.522322 15 25 C14.26136719 24.03320312 13.52273437 23.06640625 12.76171875 22.0703125 C0 4.97208738 0 4.97208738 0 0 Z " fill="#7E7E7E" transform="translate(194,194)"/>
<path d="M0 0 C4.86569598 1.94627839 7.86744637 3.92084239 12 7 C7.82412255 8.39195915 5.86525224 6.82323219 2 5 C2.495 5.9075 2.99 6.815 3.5 7.75 C5.78798541 12.95973205 5.24714013 18.425617 5 24 C3.68 24 2.36 24 1 24 C1 25.65 1 27.3 1 29 C0.67 29 0.34 29 0 29 C0 19.43 0 9.86 0 0 Z " fill="#D4D4D4" transform="translate(209,111)"/>
<path d="M0 0 C0 6.93 0 13.86 0 21 C-1.98 20.67 -3.96 20.34 -6 20 C-6 13.73 -6 7.46 -6 1 C-1 0 -1 0 0 0 Z " fill="#F9F9F9" transform="translate(236,146)"/>
<path d="M0 0 C0.33 0 0.66 0 1 0 C1 13.53 1 27.06 1 41 C-1.97 41.495 -1.97 41.495 -5 42 C-5.33 40.35 -5.66 38.7 -6 37 C-3.525 36.505 -3.525 36.505 -1 36 C-1 29.73 -1 23.46 -1 17 C-2.65 16.67 -4.3 16.34 -6 16 C-5.67 14.35 -5.34 12.7 -5 11 C-3.35 11 -1.7 11 0 11 C0 7.37 0 3.74 0 0 Z " fill="#BEBEBE" transform="translate(236,130)"/>
<path d="M0 0 C0.33 0 0.66 0 1 0 C1 27.06 1 54.12 1 82 C-0.90318884 79.14521674 -1.4619099 77.58058692 -2.125 74.3125 C-2.29257813 73.50425781 -2.46015625 72.69601563 -2.6328125 71.86328125 C-2.75398437 71.24839844 -2.87515625 70.63351563 -3 70 C-2.01 69.505 -2.01 69.505 -1 69 C-0.67 46.23 -0.34 23.46 0 0 Z " fill="#E8E8E8" transform="translate(226,132)"/>
<path d="M0 0 C2 3 2 3 4 6 C4.33 4.35 4.66 2.7 5 1 C5.99 2.32 6.98 3.64 8 5 C8.66 4.67 9.32 4.34 10 4 C10 4.66 10 5.32 10 6 C10.66 6 11.32 6 12 6 C10.59155282 9.21524305 8.89655214 11.32183868 6.375 13.75 C5.42753906 14.67039063 5.42753906 14.67039063 4.4609375 15.609375 C3.97882813 16.06828125 3.49671875 16.5271875 3 17 C1.68 15.35 0.36 13.7 -1 12 C-0.01 12 0.98 12 2 12 C2.33 11.34 2.66 10.68 3 10 C2.34 10 1.68 10 1 10 C0.67 6.7 0.34 3.4 0 0 Z " fill="#121212" transform="translate(229,227)"/>
<path d="M0 0 C5.445 1.485 5.445 1.485 11 3 C9.68 3.33 8.36 3.66 7 4 C6.773125 5.175625 6.54625 6.35125 6.3125 7.5625 C5.29665425 12.13015177 3.94914564 16.55521265 2.5 21 C2.28641846 21.6710376 2.07283691 22.3420752 1.8527832 23.03344727 C1.29453609 24.70990826 0.65334454 26.35826244 0 28 C-0.66 28.33 -1.32 28.66 -2 29 C-1.35737498 26.04093596 -0.7110539 23.08276484 -0.0625 20.125 C0.11990234 19.28324219 0.30230469 18.44148438 0.49023438 17.57421875 C0.66748047 16.76855469 0.84472656 15.96289062 1.02734375 15.1328125 C1.18968506 14.38918457 1.35202637 13.64555664 1.51928711 12.87939453 C2 11 2 11 3 9 C3.039992 7.00039988 3.04346799 4.99952758 3 3 C2.01 2.67 1.02 2.34 0 2 C0 1.34 0 0.68 0 0 Z " fill="#636363" transform="translate(288,127)"/>
<path d="M0 0 C0.66 0.33 1.32 0.66 2 1 C-2.0905385 13.55051585 -6.74527103 25.36782873 -13 37 C-13.66 36.34 -14.32 35.68 -15 35 C-14.75878418 34.47269287 -14.51756836 33.94538574 -14.26904297 33.40209961 C-9.23299131 22.3685247 -4.37175358 11.31512692 0 0 Z " fill="#727272" transform="translate(285,157)"/>
<path d="M0 0 C-0.33 0.66 -0.66 1.32 -1 2 C-1.36855085 7.89681367 -0.29379211 13.2587975 1 19 C0.34 19 -0.32 19 -1 19 C-2.96818336 13.17745757 -4.40214229 8.16618181 -4 2 C-5.60727327 2.22917968 -7.21087416 2.48420802 -8.8125 2.75 C-9.70582031 2.88921875 -10.59914062 3.0284375 -11.51953125 3.171875 C-14.50572658 4.168841 -15.38380344 5.3582435 -17 8 C-17 7.34 -17 6.68 -17 6 C-17.66 6 -18.32 6 -19 6 C-18.67 5.01 -18.34 4.02 -18 3 C-15.32536221 2.08772045 -12.80369793 1.37547645 -10.0625 0.75 C-9.32064453 0.564375 -8.57878906 0.37875 -7.81445312 0.1875 C-2.27615343 -1.13807672 -2.27615343 -1.13807672 0 0 Z " fill="#626262" transform="translate(175,129)"/>
<path d="M0 0 C0.66 0 1.32 0 2 0 C2.3403125 0.87398437 2.680625 1.74796875 3.03125 2.6484375 C3.51988752 3.89099736 4.00955951 5.13315067 4.5 6.375 C4.89070679 7.3654834 4.89070679 7.3654834 5.28930664 8.37597656 C6.84207821 12.26084036 8.47484889 16.09346819 10.21484375 19.8984375 C10.58351562 20.70619629 10.9521875 21.51395508 11.33203125 22.34619141 C12.0618341 23.93312579 12.79996897 25.51625812 13.546875 27.09521484 C16.10942417 32.67172749 16.10942417 32.67172749 15 36 C8.97866819 24.36075068 3.26522755 12.76407133 0 0 Z " fill="#727272" transform="translate(178,158)"/>
<path d="M0 0 C0.66 0.33 1.32 0.66 2 1 C-1.16336172 4.88641583 -4.40414808 8.49877576 -8 12 C-8.804375 12.86625 -8.804375 12.86625 -9.625 13.75 C-11 15 -11 15 -14 16 C-14.66 16.99 -15.32 17.98 -16 19 C-18.625 19.1875 -18.625 19.1875 -21 19 C-21.33 17.35 -21.66 15.7 -22 14 C-21.01 15.485 -21.01 15.485 -20 17 C-17.77131471 17.22822515 -17.77131471 17.22822515 -15.9375 15.0625 C-14.95644189 14.04348428 -13.97764183 13.02229374 -13 12 C-11.48367942 10.45389455 -9.96250202 8.91254316 -8.4375 7.375 C-7.69371094 6.61960938 -6.94992188 5.86421875 -6.18359375 5.0859375 C-4.21348875 3.20394095 -2.21659498 1.57825584 0 0 Z " fill="#262626" transform="translate(148,152)"/>
<path d="M0 0 C0.66 0 1.32 0 2 0 C1.69318135 3.27139242 1.37856718 6.54198921 1.0625 9.8125 C0.97548828 10.74126953 0.88847656 11.67003906 0.79882812 12.62695312 C0.71181641 13.51962891 0.62480469 14.41230469 0.53515625 15.33203125 C0.41732788 16.56530151 0.41732788 16.56530151 0.29711914 17.82348633 C0 20 0 20 -1 23 C0.32 23 1.64 23 3 23 C2.67 17.72 2.34 12.44 2 7 C2.33 7 2.66 7 3 7 C3.90413673 10.83724172 4.10576898 14.37502274 4.0625 18.3125 C4.05347656 19.38113281 4.04445313 20.44976562 4.03515625 21.55078125 C4.02355469 22.35902344 4.01195312 23.16726562 4 24 C2.02 24 0.04 24 -2 24 C-2.2144997 15.72984476 -2.07422976 8.03764031 0 0 Z " fill="#606060" transform="translate(289,214)"/>
<path d="M0 0 C0 3.63 0 7.26 0 11 C-2.97 10.505 -2.97 10.505 -6 10 C-6 7.03 -6 4.06 -6 1 C-3 0 -3 0 0 0 Z " fill="#F9F9F9" transform="translate(236,130)"/>
<path d="M0 0 C2.5 0.3125 2.5 0.3125 5 1 C6.30475618 3.60951236 6.11301572 5.52701285 6.09765625 8.4453125 C6.09443359 9.52167969 6.09121094 10.59804687 6.08789062 11.70703125 C6.07951172 12.83496094 6.07113281 13.96289062 6.0625 15.125 C6.05798828 16.26066406 6.05347656 17.39632812 6.04882812 18.56640625 C6.03701615 21.37765638 6.02054507 24.1888023 6 27 C5.67 27 5.34 27 5 27 C5 19.74 5 12.48 5 5 C3.35 5 1.7 5 0 5 C-0.5625 3.0625 -0.5625 3.0625 -1 1 C-0.67 0.67 -0.34 0.34 0 0 Z " fill="#BCBCBC" transform="translate(231,194)"/>
<path d="M0 0 C4.86569598 1.94627839 7.86744637 3.92084239 12 7 C7.82412255 8.39195915 5.86525224 6.82323219 2 5 C1.67 7.64 1.34 10.28 1 13 C0.67 13 0.34 13 0 13 C0 8.71 0 4.42 0 0 Z " fill="#B8B8B8" transform="translate(209,111)"/>
<path d="M0 0 C1.65 0.33 3.3 0.66 5 1 C4.67 2.65 4.34 4.3 4 6 C2.35 5.67 0.7 5.34 -1 5 C-0.67 3.35 -0.34 1.7 0 0 Z " fill="#2E2E2E" transform="translate(231,141)"/>
<path d="M0 0 C0.66 0.33 1.32 0.66 2 1 C2 1.66 2 2.32 2 3 C0.5682384 3.69937202 -0.87067032 4.38412718 -2.3125 5.0625 C-3.51326172 5.63677734 -3.51326172 5.63677734 -4.73828125 6.22265625 C-7 7 -7 7 -10 6 C-8.89932004 5.18278283 -7.79430269 4.37140549 -6.6875 3.5625 C-6.07261719 3.11003906 -5.45773438 2.65757813 -4.82421875 2.19140625 C-3 1 -3 1 0 0 Z " fill="#B8B8B8" transform="translate(252,113)"/>
<path d="M0 0 C1.32 0 2.64 0 4 0 C4 1.98 4 3.96 4 6 C2.35 5.67 0.7 5.34 -1 5 C-0.67 3.35 -0.34 1.7 0 0 Z " fill="#fff" transform="translate(231,166)"/>
<path d="M0 0 C0.33 0.66 0.66 1.32 1 2 C-0.97583004 7.23013834 -3.66637965 9.72570907 -8 13 C-8.66 12.67 -9.32 12.34 -10 12 C-9.44570312 11.38511719 -8.89140625 10.77023438 -8.3203125 10.13671875 C-7.59585938 9.32847656 -6.87140625 8.52023438 -6.125 7.6875 C-5.40570313 6.88699219 -4.68640625 6.08648437 -3.9453125 5.26171875 C-1.88394498 2.95810917 -1.88394498 2.95810917 0 0 Z " fill="#171717" transform="translate(253,221)"/>
<path d="M0 0 C2 1.625 2 1.625 4 4 C4.25 7.25 4.25 7.25 4 10 C3.34 10 2.68 10 2 10 C1.34 6.7 0.68 3.4 0 0 Z " fill="#1D1D1D" transform="translate(225,238)"/>
<path d="M0 0 C1.32 0 2.64 0 4 0 C4 1.65 4 3.3 4 5 C2.35 4.67 0.7 4.34 -1 4 C-0.67 2.68 -0.34 1.36 0 0 Z " fill="#191919" transform="translate(231,194)"/>
<path d="M0 0 C0.66 0.33 1.32 0.66 2 1 C-2.625 6.875 -2.625 6.875 -6 8 C-6.66 7.67 -7.32 7.34 -8 7 C-5.36 4.69 -2.72 2.38 0 0 Z " fill="#515151" transform="translate(148,152)"/>
<path d="M0 0 C2.1519437 3.22791555 2.20086443 4.28400809 2 8 C0.68 8 -0.64 8 -2 8 C-2 9.32 -2 10.64 -2 12 C-2.66 11.67 -3.32 11.34 -4 11 C-3.34 9.35 -2.68 7.7 -2 6 C-1.34 6 -0.68 6 0 6 C0 4.02 0 2.04 0 0 Z " fill="#6A6A6A" transform="translate(210,100)"/>
<path d="M0 0 C0.99 1.485 0.99 1.485 2 3 C2.8353125 3.7115625 2.8353125 3.7115625 3.6875 4.4375 C4.120625 4.953125 4.55375 5.46875 5 6 C4.6875 8.1875 4.6875 8.1875 4 10 C3.01 10 2.02 10 1 10 C0.67 6.7 0.34 3.4 0 0 Z " fill="#484848" transform="translate(229,227)"/>
<path d="M0 0 C1.18771723 3.42943519 0.80226223 5.37784675 -0.4375 8.75 C-0.86869141 9.94882813 -0.86869141 9.94882813 -1.30859375 11.171875 C-1.53675781 11.77515625 -1.76492187 12.3784375 -2 13 C-3.1171875 11.296875 -3.1171875 11.296875 -4 9 C-3.3203125 6.640625 -3.3203125 6.640625 -2.125 4.25 C-1.73570312 3.45078125 -1.34640625 2.6515625 -0.9453125 1.828125 C-0.63335937 1.22484375 -0.32140625 0.6215625 0 0 Z " fill="#B6B6B6" transform="translate(244,190)"/>
<path d="M0 0 C0.99 1.485 0.99 1.485 2 3 C2.66 3 3.32 3 4 3 C4.66 2.01 5.32 1.02 6 0 C6.66 0 7.32 0 8 0 C7.34 1.65 6.68 3.3 6 5 C4.35 5 2.7 5 1 5 C0.67 3.35 0.34 1.7 0 0 Z " fill="#525252" transform="translate(126,166)"/>
<path d="M0 0 C2.64 0.66 5.28 1.32 8 2 C7.01 2.495 7.01 2.495 6 3 C5.34444881 5.52733235 5.34444881 5.52733235 5 8 C4.67 8 4.34 8 4 8 C3.67 6.35 3.34 4.7 3 3 C2.01 2.67 1.02 2.34 0 2 C0 1.34 0 0.68 0 0 Z " fill="#6C6C6C" transform="translate(288,127)"/>
<path d="M0 0 C0.66 0.33 1.32 0.66 2 1 C0.02 3.31 -1.96 5.62 -4 8 C-4.99 7.67 -5.98 7.34 -7 7 C-6.01 6.67 -5.02 6.34 -4 6 C-2.90833725 4.06669397 -2.90833725 4.06669397 -2 2 C-1.34 1.34 -0.68 0.68 0 0 Z " fill="#4C4C4C" transform="translate(212,30)"/>
<path d="M0 0 C1.32 0.33 2.64 0.66 4 1 C1.03 2.65 -1.94 4.3 -5 6 C-4.34 4.68 -3.68 3.36 -3 2 C-2.01 2 -1.02 2 0 2 C0 1.34 0 0.68 0 0 Z " fill="#464646" transform="translate(151,211)"/>
<path d="M0 0 C1.32 1.32 2.64 2.64 4 4 C3.34 5.32 2.68 6.64 2 8 C1.34 8 0.68 8 0 8 C0 5.36 0 2.72 0 0 Z " fill="#fff" transform="translate(96,109)"/>
<path d="M0 0 C3.465 1.485 3.465 1.485 7 3 C7 3.99 7 4.98 7 6 C6.34 6 5.68 6 5 6 C5 5.34 5 4.68 5 4 C4.34 4 3.68 4 3 4 C3 3.34 3 2.68 3 2 C2.01 2 1.02 2 0 2 C0 1.34 0 0.68 0 0 Z " fill="#555555" transform="translate(241,29)"/>
</svg>
